<svg width="111" height="35" viewBox="0 0 111 35" fill="none" xmlns="http://www.w3.org/2000/svg">
<path d="M96.4488 34.8016C94.5155 34.8016 92.7155 34.4682 91.0488 33.8016C89.3822 33.1016 87.9322 32.1349 86.6988 30.9016C85.4655 29.6349 84.4988 28.1682 83.7988 26.5016C83.1322 24.8349 82.7988 23.0182 82.7988 21.0516C82.7988 19.0849 83.1322 17.2682 83.7988 15.6016C84.4988 13.9349 85.4655 12.4849 86.6988 11.2516C87.9322 10.0182 89.3822 9.06823 91.0488 8.40156C92.7155 7.70156 94.5155 7.35156 96.4488 7.35156C98.4155 7.35156 100.215 7.70156 101.849 8.40156C103.515 9.06823 104.965 10.0182 106.199 11.2516C107.432 12.4849 108.382 13.9349 109.049 15.6016C109.749 17.2682 110.099 19.0849 110.099 21.0516C110.099 23.0182 109.749 24.8349 109.049 26.5016C108.382 28.1682 107.432 29.6349 106.199 30.9016C104.965 32.1349 103.515 33.1016 101.849 33.8016C100.215 34.4682 98.4155 34.8016 96.4488 34.8016ZM96.4488 27.3516C98.0822 27.3516 99.3822 26.7682 100.349 25.6016C101.349 24.4016 101.849 22.8849 101.849 21.0516C101.849 19.1849 101.349 17.6849 100.349 16.5516C99.3822 15.3849 98.0822 14.8016 96.4488 14.8016C94.8155 14.8016 93.4988 15.3849 92.4988 16.5516C91.5322 17.6849 91.0488 19.1849 91.0488 21.0516C91.0488 22.8849 91.5322 24.4016 92.4988 25.6016C93.4988 26.7682 94.8155 27.3516 96.4488 27.3516Z" fill="black"/>
<path d="M56.7637 21.0517C56.7637 18.5183 57.2803 16.3017 58.3137 14.4017C59.347 12.4683 60.7803 10.9183 62.6137 9.75166C64.447 8.58499 66.5803 7.88499 69.0137 7.65166C71.447 7.38499 74.047 7.66832 76.8137 8.50166C76.8137 9.76832 76.8137 11.0517 76.8137 12.3517C76.8137 13.6517 76.8137 14.935 76.8137 16.2017C74.8803 15.2683 73.0303 14.835 71.2637 14.9017C69.497 14.9683 68.047 15.5183 66.9137 16.5517C65.7803 17.5517 65.2137 19.0517 65.2137 21.0517C65.2137 23.0517 65.7803 24.5683 66.9137 25.6017C68.047 26.6017 69.497 27.135 71.2637 27.2017C73.0303 27.235 74.8803 26.8017 76.8137 25.9017C76.8137 27.1683 76.8137 28.4517 76.8137 29.7517C76.8137 31.0517 76.8137 32.335 76.8137 33.6017C74.047 34.435 71.447 34.7183 69.0137 34.4517C66.5803 34.2183 64.447 33.5183 62.6137 32.3517C60.7803 31.185 59.347 29.6517 58.3137 27.7517C57.2803 25.8183 56.7637 23.585 56.7637 21.0517Z" fill="black"/>
<path d="M37.9332 34.8016C35.9999 34.8016 34.1999 34.4682 32.5332 33.8016C30.8665 33.1016 29.4165 32.1349 28.1832 30.9016C26.9499 29.6349 25.9832 28.1682 25.2832 26.5016C24.6165 24.8349 24.2832 23.0182 24.2832 21.0516C24.2832 19.0849 24.6165 17.2682 25.2832 15.6016C25.9832 13.9349 26.9499 12.4849 28.1832 11.2516C29.4165 10.0182 30.8665 9.06823 32.5332 8.40156C34.1999 7.70156 35.9999 7.35156 37.9332 7.35156C39.8999 7.35156 41.6999 7.70156 43.3332 8.40156C44.9999 9.06823 46.4499 10.0182 47.6832 11.2516C48.9165 12.4849 49.8665 13.9349 50.5332 15.6016C51.2332 17.2682 51.5832 19.0849 51.5832 21.0516C51.5832 23.0182 51.2332 24.8349 50.5332 26.5016C49.8665 28.1682 48.9165 29.6349 47.6832 30.9016C46.4499 32.1349 44.9999 33.1016 43.3332 33.8016C41.6999 34.4682 39.8999 34.8016 37.9332 34.8016ZM37.9332 27.3516C39.5665 27.3516 40.8665 26.7682 41.8332 25.6016C42.8332 24.4016 43.3332 22.8849 43.3332 21.0516C43.3332 19.1849 42.8332 17.6849 41.8332 16.5516C40.8665 15.3849 39.5665 14.8016 37.9332 14.8016C36.2999 14.8016 34.9832 15.3849 33.9832 16.5516C33.0165 17.6849 32.5332 19.1849 32.5332 21.0516C32.5332 22.8849 33.0165 24.4016 33.9832 25.6016C34.9832 26.7682 36.2999 27.3516 37.9332 27.3516Z" fill="#0C8CE9"/>
<path d="M0 34C0 28.4 0 22.7333 0 17C0 11.2667 0 5.6 0 0C1.46667 0 2.93333 0 4.4 0C5.86667 0 7.31667 0 8.75 0C8.75 4.3 8.75 8.65 8.75 13.05C8.75 17.4167 8.75 21.75 8.75 26.05C10.5167 26.05 12.3 26.05 14.1 26.05C15.9 26.05 17.6667 26.05 19.4 26.05C19.4 27.35 19.4 28.6833 19.4 30.05C19.4 31.3833 19.4 32.7 19.4 34C16.2 34 12.9667 34 9.7 34C6.43333 34 3.2 34 0 34Z" fill="black"/>
</svg>
